<svg xmlns="http://www.w3.org/2000/svg" width="580" height="580" version="1.2"><style>.s0{fill:#fff}</style><path id="Shape 1" d="M290 580a290 290 0 1 1-1-579 290 290 0 0 1 1 579z" class="s0"/><path id="Path 1" d="M246 30c-3 3-6 7-5 8l10 22c6 11 12 29 14 40a912 912 0 0 1 1 163l-77-58c-41-32-78-58-81-58-4 1-10 6-14 13-5 7-7 14-7 16 1 3 39 34 84 69l83 64C124 408 86 439 86 442c0 2 4 10 9 16s10 12 13 11c2 0 39-26 81-59l77-59c2 171 3 198 6 200l17 2c7 0 14-2 17-4 3-3 4-30 4-101v-97l150 115c8 5 9 5 20-9 7-7 12-15 11-17s-38-32-83-67c-45-34-81-64-81-66 1-2 37-31 80-64l82-65c2-2-1-10-6-17-5-8-11-13-15-13-3 0-36 23-72 51l-76 57-10 7v-77c51-2 57-3 68-11 8-5 18-17 24-26 8-14 9-22 9-42 0-21-1-27-10-43-7-13-15-21-27-28-16-9-19-9-70-10-44-1-53-1-58 4z" style="fill:#ce1628"/><path id="Path 2" d="M310 107v37c37 0 40-1 49-10s11-14 11-27-2-17-11-26-13-10-30-10h-19z" class="s0"/></svg>